<?xml version="1.0" encoding="iso-8859-1"?>
<!-- Uploaded to: SVG Repo, www.svgrepo.com, Generator: SVG Repo Mixer Tools -->
<svg height="800px" width="800px" version="1.1" id="Layer_1" xmlns="http://www.w3.org/2000/svg" xmlns:xlink="http://www.w3.org/1999/xlink" 
	 viewBox="0 0 503.607 503.607" xml:space="preserve">
<g transform="translate(1 1)">
	<g>
		<path style="fill:#FCC309;" d="M279.97,494.213h-58.754c-6.715,0-12.59-5.036-12.59-11.751v-9.233
			c0-6.715,5.875-12.59,12.59-12.59h59.593c6.715,0,12.59,5.875,12.59,12.59v9.233C292.561,489.177,286.685,494.213,279.97,494.213"
			/>
		<path style="fill:#FCC309;" d="M253.951,43.485l-3.357-36.092l-3.357,36.092c-3.357,31.895-5.036,65.469-5.036,98.203v50.361
			h16.787v-50.361C258.987,108.954,257.308,75.38,253.951,43.485"/>
	</g>
	<path style="fill:#FFFFFF;" d="M225.413,141.689v50.361H242.2v-50.361c0-33.574,1.679-66.308,5.036-98.203l3.357-36.092
		l-10.911,36.092C230.449,75.38,225.413,108.954,225.413,141.689"/>
	<path style="fill:#FD9808;" d="M261.505,43.485L250.593,7.393l3.357,36.092c3.357,31.895,5.036,65.469,5.036,98.203v50.361h16.787
		v-50.361C275.774,108.954,270.738,75.38,261.505,43.485"/>
	<path style="fill:#FFDD09;" d="M265.702,192.049h-30.216l-10.072,33.574v201.443l4.197,26.02c0,5.036,2.518,7.554,5.875,7.554
		h31.056c2.518,0,5.036-3.357,5.875-7.554l3.357-26.02V225.623L265.702,192.049z"/>
	<path style="fill:#FFFFFF;" d="M229.61,453.085l-4.197-26.02V225.623l10.072-33.574h-10.072l-16.787,33.574v201.443l6.715,26.02
		c0.839,5.036,5.036,7.554,9.233,7.554h10.072C232.128,460.639,229.61,458.121,229.61,453.085"/>
	<path style="fill:#FD9808;" d="M275.774,192.049h-10.072l10.072,33.574v201.443l-4.197,26.02c0,5.036-2.518,7.554-5.875,7.554
		h10.072c4.197,0,8.393-3.357,10.072-7.554l6.715-26.02V225.623L275.774,192.049z"/>
	<path d="M292.561,435.459h-83.934c-5.036,0-8.393-3.357-8.393-8.393V225.623c0-5.036,3.357-8.393,8.393-8.393h83.934
		c5.036,0,8.393,3.357,8.393,8.393v201.443C300.954,432.102,297.597,435.459,292.561,435.459z M217.02,418.672h67.148V234.016
		H217.02V418.672z"/>
	<path d="M276.613,469.033h-52.039c-8.393,0-15.948-5.875-17.626-14.269l-6.715-25.18c0-2.518,0-5.036,1.679-7.554
		c1.679-1.679,4.197-3.357,6.715-3.357h83.934c2.518,0,5.036,0.839,6.715,3.357c1.679,2.518,1.679,5.036,1.679,7.554l-6.715,26.02
		C292.561,463.997,285.007,469.033,276.613,469.033z M219.538,435.459l4.197,15.948c0,0.839,0,0.839,0.839,0.839h51.2
		c0.839,0,1.679-0.839,1.679-0.839l4.197-15.948H219.538z"/>
	<path d="M279.97,502.607h-58.754c-11.751,0-20.984-9.233-20.984-20.144v-9.233c0-11.751,9.233-20.984,20.984-20.984h59.593
		c11.751,0,20.984,9.233,20.984,20.984v9.233C300.954,493.374,291.721,502.607,279.97,502.607z M221.216,469.033
		c-2.518,0-4.197,1.679-4.197,4.197v9.233c0,1.679,1.679,3.357,4.197,3.357h59.593c1.679,0,3.357-1.679,3.357-3.357v-9.233
		c0-2.518-1.679-4.197-4.197-4.197H221.216z"/>
	<path d="M292.561,234.016h-83.934c-2.518,0-5.875-1.679-7.554-4.197c-1.679-2.518-1.679-5.875,0-8.393l16.787-33.574
		c1.679-2.518,4.197-4.197,7.554-4.197h50.361c3.357,0,5.875,1.679,7.554,5.036l16.787,33.574c1.679,2.518,0.839,5.875,0,8.393
		C298.436,233.177,295.079,234.016,292.561,234.016z M222.056,217.229h57.075l-8.393-16.787h-40.289L222.056,217.229z"/>
	<path d="M275.774,200.443h-50.361c-5.036,0-8.393-3.357-8.393-8.393v-50.361c0-5.036,3.357-8.393,8.393-8.393h50.361
		c5.036,0,8.393,3.357,8.393,8.393v50.361C284.167,197.085,280.81,200.443,275.774,200.443z M233.807,183.656h33.574v-33.574
		h-33.574V183.656z"/>
	<path d="M275.774,150.082h-50.361c-5.036,0-8.393-3.357-8.393-8.393c0-33.574,5.036-67.987,15.108-100.721L242.2,4.875
		C243.879,1.518,247.236-1,250.593-1s6.715,2.518,8.393,5.875l10.072,36.092c10.072,32.734,15.108,67.148,15.108,100.721
		C284.167,146.725,280.81,150.082,275.774,150.082z M233.807,133.295h33.574c-0.839-29.377-5.875-58.754-14.269-87.292l-2.518-9.233
		l-2.518,9.233C239.682,74.541,234.646,103.918,233.807,133.295z"/>
</g>
</svg>